<svg xmlns="http://www.w3.org/2000/svg" viewBox="0 0 136.67 23.2"><defs><style>.cls-1{fill:#bccf00;}.cls-1,.cls-2{fill-rule:evenodd;}.cls-2{fill:#342483;}</style></defs><title>omnialogo</title><g id="Layer_2" data-name="Layer 2"><g id="Vrstva_1" data-name="Vrstva 1"><path class="cls-1" d="M21.25,16.3a6.79,6.79,0,0,1-4.87,1.86,6.91,6.91,0,0,1-4.9-1.86,6.38,6.38,0,0,1-2-4.89,6.29,6.29,0,0,1,2-4.86,6.94,6.94,0,0,1,4.89-1.82,6.9,6.9,0,0,1,4.88,1.82A5.92,5.92,0,0,1,23,9.67Q24.75-3,9.8,1q-17,4.53-4.53,17Q16.64,29.3,21.4,16.15l-.15.15Zm53.22-2.83a2.87,2.87,0,0,0,.78-2.16,2.84,2.84,0,0,0-.78-2.15,2.52,2.52,0,0,0-3.6,0,2.87,2.87,0,0,0-.78,2.16,2.84,2.84,0,0,0,.78,2.15,2.52,2.52,0,0,0,3.6,0ZM68,15.67a6.14,6.14,0,0,1-1.57-4.34A6.18,6.18,0,0,1,68,7a5,5,0,0,1,3.82-1.7,4,4,0,0,1,3.46,1.67V5.4h3.62V17.21H75.25V15.5a4.09,4.09,0,0,1-3.51,1.86A5,5,0,0,1,68,15.67ZM61.11,5.4h3.62V17.21H61.11V5.4Zm3.3-1.33a2.15,2.15,0,0,1-3,0,2.06,2.06,0,0,1-.61-1.51A2.06,2.06,0,0,1,61.41,1a2.15,2.15,0,0,1,3,0A2.06,2.06,0,0,1,65,2.56a2.06,2.06,0,0,1-.61,1.51ZM50.76,5.4V7.14a3.87,3.87,0,0,1,3.58-1.86,4.29,4.29,0,0,1,3.29,1.35,5.2,5.2,0,0,1,1.26,3.68v6.9h-3.6V10.8A2.44,2.44,0,0,0,54.69,9a2.52,2.52,0,0,0-3.32,0,2.44,2.44,0,0,0-.6,1.77v6.41H47.15V5.4Zm-22,0V7.14a3.87,3.87,0,0,1,3.58-1.86,4.6,4.6,0,0,1,2.34.59,4.08,4.08,0,0,1,1.6,1.69A5.05,5.05,0,0,1,38,5.9a4.92,4.92,0,0,1,5.77.71A5.16,5.16,0,0,1,45,10.31v6.9h-3.6V10.8A2.44,2.44,0,0,0,40.83,9,2.52,2.52,0,0,0,37.5,9a2.44,2.44,0,0,0-.6,1.77v6.41H33.3V10.8A2.44,2.44,0,0,0,32.7,9a2.52,2.52,0,0,0-3.32,0,2.44,2.44,0,0,0-.6,1.77v6.41H25.16V5.4ZM14.4,9a2.61,2.61,0,0,1,1.94-.84,2.65,2.65,0,0,1,2,.84,3.33,3.33,0,0,1,.82,2.43,3.43,3.43,0,0,1-.8,2.45,2.56,2.56,0,0,1-1.93.85,2.67,2.67,0,0,1-2-.85,3.34,3.34,0,0,1-.83-2.45A3.35,3.35,0,0,1,14.4,9Z"/><path class="cls-2" d="M81.39,9a3.92,3.92,0,0,1,1.75-2.62,6.4,6.4,0,0,1,3.78-1.06,5.3,5.3,0,0,1,3.51,1,3,3,0,0,1,1,2.84h-3.7a.88.88,0,0,0-.29-.84,1.89,1.89,0,0,0-1-.22Q85,8.09,84.86,9T86.43,10a12.44,12.44,0,0,1,3.05.91,2.23,2.23,0,0,1,1.08,1,2.54,2.54,0,0,1,.23,1.68,3.91,3.91,0,0,1-1.85,2.7,6.63,6.63,0,0,1-3.74,1,5.52,5.52,0,0,1-3.44-1,3.05,3.05,0,0,1-1.11-2.91h3.7q0,1.08,1.35,1.08a2,2,0,0,0,1.09-.3,1.1,1.1,0,0,0,.53-.76q.07-.47-.57-.74a8.28,8.28,0,0,0-1.59-.47q-.94-.19-1.88-.48a3,3,0,0,1-1.51-1A2.25,2.25,0,0,1,81.39,9ZM134,14.14h1.29l-.49,3.07H133a4.22,4.22,0,0,1-2.94-.88q-1-.88-.61-3l.78-4.91h-1.1l.48-3h1.1l.46-2.88h3.62L134.3,5.4h2.37l-.48,3h-2.37L133,13.32q-.13.83,1,.83ZM125.45,5.4l-.35,2.2a4.62,4.62,0,0,1,3.76-2.33L128.27,9h-.89a3,3,0,0,0-2,.59,3.26,3.26,0,0,0-1,2.07l-.89,5.59H120L121.83,5.4Zm-11.21,8.11a3.63,3.63,0,0,0,1.07-2.2,2.67,2.67,0,0,0-.39-2.19,2,2,0,0,0-1.64-.75,2.76,2.76,0,0,0-1.86.75,3.55,3.55,0,0,0-1.08,2.19,2.68,2.68,0,0,0,.4,2.2,2,2,0,0,0,1.65.76,2.71,2.71,0,0,0,1.86-.76Zm-6.49,2.18a5,5,0,0,1-1.09-4.4,6.76,6.76,0,0,1,2.47-4.37,7.23,7.23,0,0,1,4.66-1.64,5.33,5.33,0,0,1,4.13,1.64A5,5,0,0,1,119,11.29a6.91,6.91,0,0,1-2.45,4.4,7.08,7.08,0,0,1-4.65,1.67,5.33,5.33,0,0,1-4.15-1.67Zm-6.94-2.21a3.36,3.36,0,0,0,1.12-2.15,2.55,2.55,0,0,0-.44-2.16,2.13,2.13,0,0,0-1.68-.76,3,3,0,0,0-1.92.75,3.36,3.36,0,0,0-1.12,2.15,2.55,2.55,0,0,0,.44,2.16,2.13,2.13,0,0,0,1.68.76,3,3,0,0,0,1.92-.75ZM97.46,6.95,97.7,5.4H94.08L91.32,22.84h3.62L96.1,15.5a3.34,3.34,0,0,0,3.2,1.86,5.85,5.85,0,0,0,4.06-1.69,7.26,7.26,0,0,0,2.25-4.34A5.48,5.48,0,0,0,104.73,7a4.22,4.22,0,0,0-3.55-1.7A4.75,4.75,0,0,0,97.46,6.95Z"/></g></g></svg>