<?xml version="1.0" standalone="no"?>
<!DOCTYPE svg PUBLIC "-//W3C//DTD SVG 20010904//EN"
 "http://www.w3.org/TR/2001/REC-SVG-20010904/DTD/svg10.dtd">
<svg version="1.0" xmlns="http://www.w3.org/2000/svg"
 width="1248.000000pt" height="1248.000000pt" viewBox="0 0 1248.000000 1248.000000"
 preserveAspectRatio="xMidYMid meet">
<metadata>
Created by potrace 1.11, written by Peter Selinger 2001-2013
</metadata>
<g transform="translate(0.000000,1248.000000) scale(0.100000,-0.100000)"
fill="#000000" stroke="none">
<path d="M2655 12459 c-22 -11 -53 -29 -70 -39 -16 -10 -50 -29 -75 -42 -49
-27 -724 -416 -830 -478 -36 -21 -137 -79 -225 -129 -183 -105 -156 -90 -345
-199 -155 -91 -152 -89 -310 -179 -516 -295 -507 -288 -541 -355 -18 -36 -19
-124 -19 -4025 0 -3915 1 -3989 20 -4028 10 -22 25 -48 33 -57 7 -9 101 -67
208 -129 270 -156 490 -282 687 -395 213 -123 876 -505 922 -532 19 -11 51
-29 70 -40 19 -11 107 -61 195 -112 88 -51 176 -101 195 -112 19 -11 109 -63
200 -116 303 -175 685 -394 730 -420 25 -13 50 -28 55 -32 6 -4 35 -21 65 -37
30 -17 127 -72 215 -123 88 -51 178 -103 200 -116 22 -12 81 -45 130 -74 50
-29 108 -63 130 -75 22 -13 180 -104 351 -203 171 -98 327 -185 347 -191 64
-22 116 -5 279 92 40 24 80 46 88 50 8 4 29 16 46 26 29 18 227 132 744 429
129 74 291 167 360 207 69 40 141 82 160 92 19 11 94 54 165 95 72 42 146 85
165 95 19 11 303 174 630 363 327 189 615 354 640 368 25 14 62 36 82 49 21
12 40 23 43 23 3 0 22 11 43 24 34 22 310 181 412 238 25 14 110 63 190 110
80 46 152 87 160 91 71 33 571 332 595 356 18 17 37 48 43 69 9 29 12 372 12
1311 l0 1271 40 25 c22 14 42 25 45 25 2 0 29 16 59 35 30 19 57 35 59 35 3 0
66 36 142 80 76 44 139 80 140 80 2 0 34 19 71 41 38 23 87 52 109 64 22 12
99 56 170 97 317 183 533 307 565 325 19 11 94 54 165 95 72 42 147 85 168 97
21 12 107 61 190 110 84 48 183 105 221 126 88 49 140 100 153 151 6 25 9 534
9 1389 l-1 1350 -23 40 c-13 22 -34 48 -48 58 -13 10 -149 90 -301 178 -153
87 -285 164 -293 169 -8 5 -49 28 -90 52 -41 23 -87 49 -102 58 -14 8 -154 89
-310 178 -155 90 -290 168 -298 173 -8 5 -96 55 -195 112 -99 57 -302 174
-452 261 -305 175 -343 193 -394 190 -46 -3 -70 -15 -312 -155 -108 -63 -212
-122 -229 -132 -59 -34 -303 -174 -338 -194 -27 -16 -399 -230 -595 -343 -16
-9 -131 -75 -255 -147 -124 -71 -252 -145 -285 -164 -33 -19 -68 -38 -77 -44
-10 -5 -82 -47 -161 -92 -174 -100 -187 -110 -215 -165 l-22 -43 -3 -1283 -2
-1283 -50 -28 c-27 -15 -135 -77 -240 -138 -231 -133 -717 -413 -765 -441 -19
-11 -150 -86 -290 -167 -140 -81 -273 -157 -295 -170 -22 -12 -65 -37 -95 -55
-65 -38 -177 -100 -182 -100 -1 0 -3 1117 -3 2483 0 1365 -3 2494 -8 2510 -15
55 -81 102 -377 271 -162 92 -306 176 -320 185 -14 9 -50 29 -80 45 -30 16
-62 35 -71 42 -8 8 -18 14 -22 14 -4 0 -44 22 -89 49 -76 44 -436 252 -518
298 -19 11 -64 38 -100 59 -36 21 -67 39 -70 39 -3 0 -16 8 -30 17 -21 13
-138 81 -260 150 -19 11 -123 71 -230 133 -255 146 -255 147 -314 152 -39 3
-61 -1 -91 -18z m154 -433 c31 -19 74 -44 96 -56 22 -12 128 -73 235 -135 107
-62 299 -171 425 -244 127 -72 237 -136 245 -141 18 -11 549 -317 718 -414 67
-38 122 -73 122 -76 0 -3 -28 -22 -62 -42 -35 -20 -133 -76 -218 -125 -85 -49
-276 -160 -425 -245 -148 -86 -286 -165 -305 -176 -19 -12 -46 -27 -60 -35
-14 -7 -88 -50 -165 -94 -77 -44 -156 -90 -175 -101 -43 -24 -336 -193 -405
-234 -91 -53 -92 -53 -128 -35 -17 9 -58 31 -89 49 -67 39 -522 302 -558 323
-61 35 -349 201 -772 445 -252 144 -458 266 -458 270 0 6 77 52 277 167 18 10
130 74 249 143 119 69 233 134 253 145 32 18 125 72 173 100 9 6 34 20 55 31
21 12 153 88 293 169 292 169 304 176 385 222 33 19 67 38 75 43 63 40 137 79
149 80 7 0 39 -15 70 -34z m7348 -1552 c600 -345 749 -431 788 -454 157 -89
586 -337 608 -350 l27 -17 -57 -32 c-32 -18 -74 -41 -93 -52 -38 -23 -266
-154 -779 -449 -184 -106 -348 -201 -365 -211 -17 -10 -37 -22 -45 -25 -7 -4
-90 -51 -183 -106 -93 -54 -172 -98 -175 -98 -4 0 -14 -6 -22 -14 -9 -7 -41
-27 -71 -43 -30 -17 -72 -40 -92 -53 l-38 -22 -182 105 c-101 58 -313 180
-473 272 -159 92 -308 178 -330 190 -22 13 -170 98 -330 190 -159 92 -361 208
-448 257 l-158 91 35 23 c19 13 38 24 41 24 3 0 22 11 43 23 20 13 57 35 82
49 41 23 611 350 687 394 18 11 103 60 190 110 87 50 290 167 451 260 400 231
387 223 389 224 1 0 226 -129 500 -286z m-5305 -2236 c-1 -1311 -1 -2395 -2
-2409 0 -23 -19 -37 -162 -120 -89 -52 -174 -101 -189 -109 -53 -29 -483 -277
-732 -421 -65 -38 -120 -69 -123 -69 -3 0 -17 -8 -32 -19 -24 -17 -606 -352
-659 -380 l-23 -12 0 2410 0 2410 58 34 c63 38 900 519 977 563 27 15 72 40
99 57 28 16 65 37 81 47 351 199 673 386 684 396 8 8 17 12 19 9 2 -2 4 -1076
4 -2387z m-4125 2331 c48 -28 106 -61 128 -74 22 -12 106 -61 187 -107 80 -47
152 -88 160 -92 7 -3 29 -16 48 -27 39 -24 345 -201 400 -232 19 -11 157 -89
305 -175 149 -85 335 -193 415 -239 80 -46 152 -87 160 -92 13 -7 15 -308 16
-2607 l1 -2599 20 -40 c31 -59 44 -69 198 -155 22 -12 144 -81 270 -153 127
-72 248 -140 270 -152 22 -12 155 -87 295 -167 249 -142 677 -384 753 -427 21
-12 71 -40 110 -62 40 -23 97 -55 127 -72 30 -17 93 -52 139 -79 46 -26 87
-48 91 -48 31 0 32 -27 33 -1125 0 -602 -2 -1097 -5 -1100 -2 -2 -28 10 -58
28 -30 19 -80 47 -110 64 -30 17 -244 140 -475 273 -231 133 -440 254 -465
268 -25 14 -58 34 -75 44 -16 10 -37 21 -45 25 -8 4 -58 33 -112 64 -53 31
-120 70 -150 86 -29 17 -258 148 -508 293 -250 144 -471 272 -490 283 -19 10
-168 96 -330 190 -162 93 -315 181 -339 195 -45 25 -413 237 -841 484 l-225
130 0 3724 c0 2048 3 3724 7 3724 3 0 46 -23 95 -51z m7313 -1532 c30 -16 60
-33 65 -37 6 -5 31 -20 57 -34 26 -15 294 -169 595 -343 302 -173 573 -329
603 -346 30 -17 66 -38 80 -46 l26 -16 0 -1092 c0 -601 -3 -1093 -6 -1093 -3
0 -14 6 -25 14 -11 7 -40 24 -65 38 -25 14 -227 130 -450 258 -223 128 -419
241 -437 251 -17 10 -50 29 -72 43 -22 15 -43 26 -46 26 -4 0 -99 55 -155 90
-8 5 -51 30 -95 55 -100 56 -166 94 -391 223 l-179 104 1 1091 c1 601 2 1093
3 1094 0 1 99 -55 219 -124 119 -69 242 -139 272 -156z m3732 -812 c0 -598 -4
-1091 -9 -1095 -4 -5 -96 -59 -203 -120 -107 -62 -298 -172 -425 -245 -126
-73 -248 -143 -270 -155 -22 -12 -44 -26 -50 -30 -5 -4 -32 -20 -60 -35 -76
-42 -772 -442 -837 -481 -31 -19 -59 -34 -62 -34 -3 0 -6 492 -6 1093 l0 1093
121 70 c67 38 140 80 163 93 80 46 712 409 766 440 30 17 62 36 70 41 8 5 41
25 74 42 32 18 68 39 80 45 234 138 642 370 644 368 2 -2 4 -493 4 -1090z
m-4354 -1464 c37 -21 83 -48 102 -59 19 -10 229 -131 465 -267 237 -137 455
-262 485 -278 30 -16 62 -36 71 -43 8 -8 19 -14 22 -14 4 0 37 -18 73 -40 36
-22 67 -40 69 -40 1 0 54 -30 116 -66 63 -37 129 -75 147 -86 85 -48 297 -170
300 -173 1 -1 -37 -25 -85 -53 -157 -89 -2137 -1219 -2168 -1236 -16 -9 -43
-25 -60 -35 -16 -9 -57 -32 -90 -50 -33 -18 -64 -36 -70 -41 -5 -4 -35 -21
-65 -38 -30 -17 -422 -240 -870 -496 l-815 -465 -50 28 c-27 16 -286 162 -575
326 -289 164 -545 309 -570 323 -25 14 -148 84 -275 155 -126 72 -255 144
-285 160 -30 17 -71 40 -90 52 -19 12 -44 25 -54 29 -22 8 -16 16 34 44 60 33
1031 592 1105 635 39 23 79 47 90 53 11 6 52 29 90 51 39 22 88 51 110 64 179
102 290 166 720 414 160 92 310 179 335 193 25 13 72 40 105 60 33 19 74 42
90 52 30 17 332 191 570 328 72 41 220 127 330 190 110 63 214 123 230 133 17
10 50 29 75 42 25 14 106 61 180 105 74 44 136 81 138 81 2 1 34 -16 70 -38z
m2048 -2499 c0 -973 -1 -1088 -15 -1098 -18 -13 -506 -294 -596 -344 -33 -18
-72 -41 -87 -51 -14 -11 -29 -19 -32 -19 -4 0 -25 -12 -48 -26 -23 -14 -60
-36 -82 -48 -23 -13 -101 -57 -174 -100 -74 -43 -155 -89 -180 -103 -26 -14
-51 -29 -57 -33 -9 -6 -276 -161 -385 -223 -19 -10 -80 -45 -135 -77 -55 -32
-116 -67 -135 -78 -19 -11 -105 -60 -190 -109 -157 -91 -796 -459 -860 -495
-19 -11 -154 -89 -300 -173 -566 -327 -867 -500 -907 -523 -31 -17 -43 -20
-44 -10 0 7 -1 501 -2 1097 -1 710 1 1089 8 1097 8 11 161 100 535 312 25 14
171 97 325 185 154 88 294 168 310 177 17 9 127 72 245 140 118 67 234 134
258 147 23 13 93 53 154 89 61 35 112 64 113 64 1 0 51 28 111 63 60 35 116
66 124 70 8 4 31 17 50 28 33 20 424 244 500 286 19 11 112 64 205 118 94 54
195 112 225 128 30 16 60 33 65 37 6 4 30 18 55 32 81 45 403 229 488 279 45
27 84 49 85 49 2 0 84 47 183 104 98 56 181 101 184 99 3 -3 5 -494 6 -1091z"/>
</g>
</svg>
